<mxfile host="Electron" modified="2024-02-14T18:25:49.553Z" agent="Mozilla/5.0 (Windows NT 10.0; Win64; x64) AppleWebKit/537.36 (KHTML, like Gecko) draw.io/23.0.2 Chrome/120.0.6099.109 Electron/28.1.0 Safari/537.36" etag="2eHF_B6Hzu9K6yEtaoYo" version="23.0.2" type="device">
  <diagram name="Page-1" id="a65CQhjis1dKOC1QSkEO">
    <mxGraphModel dx="439" dy="350" grid="1" gridSize="10" guides="1" tooltips="1" connect="1" arrows="1" fold="1" page="1" pageScale="1" pageWidth="827" pageHeight="1169" math="0" shadow="0">
      <root>
        <mxCell id="0" />
        <mxCell id="1" parent="0" />
        <mxCell id="4EqTq7IPgHkPQn256GaO-3" value="Ã—" style="ellipse;whiteSpace=wrap;html=1;aspect=fixed;fontFamily=monospace;fontSize=10;" parent="1" vertex="1">
          <mxGeometry x="190" y="110" width="20" height="20" as="geometry" />
        </mxCell>
        <mxCell id="4EqTq7IPgHkPQn256GaO-4" value="Carrier" style="text;html=1;strokeColor=none;fillColor=none;align=center;verticalAlign=middle;whiteSpace=wrap;rounded=0;fontFamily=monospace;fontSize=10;" parent="1" vertex="1">
          <mxGeometry x="50" y="50" width="70" height="20" as="geometry" />
        </mxCell>
        <mxCell id="4EqTq7IPgHkPQn256GaO-5" value="Modulator" style="text;html=1;strokeColor=none;fillColor=none;align=center;verticalAlign=middle;whiteSpace=wrap;rounded=0;fontFamily=monospace;fontSize=10;" parent="1" vertex="1">
          <mxGeometry x="50" y="110" width="70" height="20" as="geometry" />
        </mxCell>
        <mxCell id="4EqTq7IPgHkPQn256GaO-6" value="" style="endArrow=classic;html=1;rounded=0;fontFamily=monospace;fontSize=10;" parent="1" source="X9ado_vOA0QVCVTdOzAH-3" edge="1">
          <mxGeometry width="50" height="50" relative="1" as="geometry">
            <mxPoint x="240" y="220" as="sourcePoint" />
            <mxPoint x="200" y="60" as="targetPoint" />
            <Array as="points">
              <mxPoint x="200" y="60" />
            </Array>
          </mxGeometry>
        </mxCell>
        <mxCell id="4EqTq7IPgHkPQn256GaO-7" value="" style="endArrow=classic;html=1;rounded=0;exitX=1;exitY=0.5;exitDx=0;exitDy=0;entryX=0;entryY=0.5;entryDx=0;entryDy=0;fontFamily=monospace;fontSize=10;" parent="1" source="X9ado_vOA0QVCVTdOzAH-13" target="4EqTq7IPgHkPQn256GaO-3" edge="1">
          <mxGeometry width="50" height="50" relative="1" as="geometry">
            <mxPoint x="200" y="220" as="sourcePoint" />
            <mxPoint x="150" y="150" as="targetPoint" />
            <Array as="points" />
          </mxGeometry>
        </mxCell>
        <mxCell id="4EqTq7IPgHkPQn256GaO-8" value="" style="endArrow=classic;html=1;rounded=0;exitX=1;exitY=0.5;exitDx=0;exitDy=0;entryX=0;entryY=0.5;entryDx=0;entryDy=0;fontFamily=monospace;fontSize=10;" parent="1" source="X9ado_vOA0QVCVTdOzAH-1" edge="1" target="4EqTq7IPgHkPQn256GaO-9">
          <mxGeometry width="50" height="50" relative="1" as="geometry">
            <mxPoint x="240" y="220" as="sourcePoint" />
            <mxPoint x="270" y="90" as="targetPoint" />
          </mxGeometry>
        </mxCell>
        <mxCell id="4EqTq7IPgHkPQn256GaO-9" value="Output" style="text;html=1;strokeColor=none;fillColor=none;align=center;verticalAlign=middle;whiteSpace=wrap;rounded=0;fontFamily=monospace;fontSize=10;" parent="1" vertex="1">
          <mxGeometry x="300" y="110" width="50" height="20" as="geometry" />
        </mxCell>
        <mxCell id="X9ado_vOA0QVCVTdOzAH-1" value="+" style="ellipse;whiteSpace=wrap;html=1;aspect=fixed;fontFamily=monospace;fontSize=10;" vertex="1" parent="1">
          <mxGeometry x="250" y="110" width="20" height="20" as="geometry" />
        </mxCell>
        <mxCell id="X9ado_vOA0QVCVTdOzAH-2" value="" style="endArrow=classic;html=1;rounded=0;exitX=1;exitY=0.5;exitDx=0;exitDy=0;entryX=0;entryY=0.5;entryDx=0;entryDy=0;fontFamily=monospace;fontSize=10;" edge="1" parent="1" source="4EqTq7IPgHkPQn256GaO-3" target="X9ado_vOA0QVCVTdOzAH-1">
          <mxGeometry width="50" height="50" relative="1" as="geometry">
            <mxPoint x="260" y="130" as="sourcePoint" />
            <mxPoint x="290" y="130" as="targetPoint" />
          </mxGeometry>
        </mxCell>
        <mxCell id="X9ado_vOA0QVCVTdOzAH-4" value="" style="endArrow=classic;html=1;rounded=0;entryX=0.5;entryY=0;entryDx=0;entryDy=0;exitX=0.567;exitY=0.667;exitDx=0;exitDy=0;exitPerimeter=0;fontFamily=monospace;fontSize=10;" edge="1" parent="1" source="X9ado_vOA0QVCVTdOzAH-3" target="4EqTq7IPgHkPQn256GaO-3">
          <mxGeometry width="50" height="50" relative="1" as="geometry">
            <mxPoint x="160" y="60" as="sourcePoint" />
            <mxPoint x="200" y="60" as="targetPoint" />
            <Array as="points">
              <mxPoint x="200" y="80" />
            </Array>
          </mxGeometry>
        </mxCell>
        <mxCell id="X9ado_vOA0QVCVTdOzAH-3" value="" style="shape=waypoint;sketch=0;fillStyle=solid;size=6;pointerEvents=1;points=[];fillColor=none;resizable=0;rotatable=0;perimeter=centerPerimeter;snapToPoint=1;fontFamily=monospace;fontSize=10;" vertex="1" parent="1">
          <mxGeometry x="190" y="50" width="20" height="20" as="geometry" />
        </mxCell>
        <mxCell id="X9ado_vOA0QVCVTdOzAH-6" value="" style="endArrow=none;html=1;rounded=0;exitX=1;exitY=0.5;exitDx=0;exitDy=0;entryX=0.4;entryY=0.5;entryDx=0;entryDy=0;entryPerimeter=0;fontFamily=monospace;fontSize=10;" edge="1" parent="1" source="4EqTq7IPgHkPQn256GaO-4" target="X9ado_vOA0QVCVTdOzAH-3">
          <mxGeometry width="50" height="50" relative="1" as="geometry">
            <mxPoint x="190" y="120" as="sourcePoint" />
            <mxPoint x="240" y="70" as="targetPoint" />
          </mxGeometry>
        </mxCell>
        <mxCell id="X9ado_vOA0QVCVTdOzAH-8" value="" style="triangle;whiteSpace=wrap;html=1;rotation=90;fontFamily=monospace;fontSize=10;" vertex="1" parent="1">
          <mxGeometry x="251.25" y="71.25" width="17.5" height="20" as="geometry" />
        </mxCell>
        <mxCell id="X9ado_vOA0QVCVTdOzAH-9" value="" style="endArrow=none;html=1;rounded=0;exitX=0.75;exitY=0.583;exitDx=0;exitDy=0;exitPerimeter=0;entryX=0;entryY=0.5;entryDx=0;entryDy=0;fontFamily=monospace;fontSize=10;" edge="1" parent="1" source="X9ado_vOA0QVCVTdOzAH-3" target="X9ado_vOA0QVCVTdOzAH-8">
          <mxGeometry width="50" height="50" relative="1" as="geometry">
            <mxPoint x="230" y="120" as="sourcePoint" />
            <mxPoint x="280" y="70" as="targetPoint" />
            <Array as="points">
              <mxPoint x="260" y="60" />
            </Array>
          </mxGeometry>
        </mxCell>
        <mxCell id="X9ado_vOA0QVCVTdOzAH-10" value="" style="endArrow=classic;html=1;rounded=0;exitX=1;exitY=0.5;exitDx=0;exitDy=0;entryX=0.5;entryY=0;entryDx=0;entryDy=0;fontFamily=monospace;fontSize=10;" edge="1" parent="1" source="X9ado_vOA0QVCVTdOzAH-8" target="X9ado_vOA0QVCVTdOzAH-1">
          <mxGeometry width="50" height="50" relative="1" as="geometry">
            <mxPoint x="230" y="120" as="sourcePoint" />
            <mxPoint x="280" y="70" as="targetPoint" />
          </mxGeometry>
        </mxCell>
        <mxCell id="X9ado_vOA0QVCVTdOzAH-11" value="m" style="text;html=1;strokeColor=none;fillColor=none;align=center;verticalAlign=middle;whiteSpace=wrap;rounded=0;fontFamily=monospace;fontSize=10;" vertex="1" parent="1">
          <mxGeometry x="148.75" y="90" width="20" height="20" as="geometry" />
        </mxCell>
        <mxCell id="X9ado_vOA0QVCVTdOzAH-12" value="B" style="text;html=1;strokeColor=none;fillColor=none;align=center;verticalAlign=middle;whiteSpace=wrap;rounded=0;fontFamily=monospace;fontSize=10;" vertex="1" parent="1">
          <mxGeometry x="268.75" y="71.25" width="20" height="20" as="geometry" />
        </mxCell>
        <mxCell id="X9ado_vOA0QVCVTdOzAH-13" value="" style="triangle;whiteSpace=wrap;html=1;rotation=0;fontFamily=monospace;fontSize=10;" vertex="1" parent="1">
          <mxGeometry x="150" y="110" width="17.5" height="20" as="geometry" />
        </mxCell>
        <mxCell id="X9ado_vOA0QVCVTdOzAH-15" value="" style="endArrow=none;html=1;rounded=0;exitX=1;exitY=0.5;exitDx=0;exitDy=0;entryX=0;entryY=0.5;entryDx=0;entryDy=0;fontFamily=monospace;fontSize=10;" edge="1" parent="1" source="4EqTq7IPgHkPQn256GaO-5" target="X9ado_vOA0QVCVTdOzAH-13">
          <mxGeometry width="50" height="50" relative="1" as="geometry">
            <mxPoint x="190" y="110" as="sourcePoint" />
            <mxPoint x="240" y="60" as="targetPoint" />
          </mxGeometry>
        </mxCell>
      </root>
    </mxGraphModel>
  </diagram>
</mxfile>
